<?xml version="1.0" encoding="UTF-8"?>
<svg width="173px" height="57px" viewBox="0 0 173 57" version="1.1" xmlns="http://www.w3.org/2000/svg" xmlns:xlink="http://www.w3.org/1999/xlink">
    <title>VR看房</title>
    <defs>
        <rect id="path-1" x="0" y="0" width="173" height="57"></rect>
    </defs>
    <g id="页面-1" stroke="none" stroke-width="1" fill="none" fill-rule="evenodd">
        <g id="切图" transform="translate(-32.000000, -292.000000)">
            <g id="编组" transform="translate(32.000000, 292.000000)">
                <mask id="mask-2" fill="white">
                    <use xlink:href="#path-1"></use>
                </mask>
                <g id="蒙版" opacity="0.434618995"></g>
                <g mask="url(#mask-2)">
                    <g transform="translate(4.000000, 2.000000)">
                        <g id="编组-2" stroke-width="1" fill="none" fill-rule="evenodd" transform="translate(1.000000, 0.000000)">
                            <path d="M62.7256133,23.3478971 C61.185129,23.3478971 59.9319541,22.1292286 59.9319541,20.6311619 L59.9319541,16.9140501 L61.994891,16.9140501 L61.994891,20.5408474 C61.994891,20.9808901 62.3632162,21.3390734 62.8157186,21.3390734 L70.6809621,21.3390734 L70.6809621,23.3478971 L62.7256133,23.3478971 Z" id="Fill-123" fill="#242424"></path>
                            <polygon id="Fill-124" fill="#242424" points="64.1741349 19.4507329 69.3219925 19.4507329 69.3219925 17.4445994 64.1741349 17.4445994"></polygon>
                            <polygon id="Fill-125" fill="#242424" points="72.7290791 23.5531607 70.8823158 16.9990225 72.8934818 16.7961033 74.8611758 23.5531607"></polygon>
                            <polygon id="Fill-126" fill="#242424" points="59.8980856 9.3074604 67.5270003 9.3074604 67.5270003 7.65451398 59.8980856 7.65451398"></polygon>
                            <path d="M61.9369154,14.1694519 L65.5253191,14.1694519 L65.5253191,12.2152011 L61.9369154,12.2152011 L61.9369154,14.1694519 Z M59.9320726,15.7966491 L67.5270003,15.7966491 L67.5270003,10.5883882 L59.9320726,10.5883882 L59.9320726,15.7966491 Z" id="Fill-127" fill="#242424"></path>
                            <polygon id="Fill-128" fill="#242424" points="56.5341547 23.5533144 58.5923492 23.5533144 58.5923492 16.9361483 56.5341547 16.9361483"></polygon>
                            <polygon id="Fill-129" fill="#242424" points="56.5356169 15.7966491 56.5356169 4.28482453 72.7332287 4.28482453 72.7332287 3.10727795 74.7894473 3.10727795 74.7894473 6.29364829 58.5985538 6.29364829 58.5985538 15.7966491"></polygon>
                            <path d="M68.5364957,13.9257566 L68.6005179,13.8615757 C70.3326735,12.1313816 71.833638,9.84546545 72.7180926,7.59029464 L72.7734204,7.44848175 L74.9106547,7.44848175 L74.8082982,7.74017818 C74.3905733,8.92925427 72.7307389,13.0583536 68.911144,16.2716262 L68.5364957,16.5871502 L68.5364957,13.9257566 Z" id="Fill-130" fill="#242424"></path>
                            <path d="M73.196283,16.5309631 C73.1828462,16.5105943 71.831662,14.4333622 70.3125184,11.3019491 C69.030494,8.65977135 67.2074426,4.26434045 66.8549254,3.40961995 L66.7300427,3.10716266 L68.9581727,3.10716266 L69.0146861,3.24705396 C69.3237314,4.00915411 70.914406,7.91573408 71.8917322,9.97106017 C72.8868424,12.0640493 74.8995891,15.4687116 75.2928118,16.1301207 L75.4678848,16.4245074 L73.2713707,16.6462582 L73.196283,16.5309631 Z" id="Fill-131" fill="#242424"></path>
                            <polygon id="Fill-132" fill="#242424" points="41.1142938 11.5411095 52.3806169 11.5411095 52.3806169 9.88854736 41.1142938 9.88854736"></polygon>
                            <path d="M42.8318271,21.6063657 L50.3607566,21.6063657 L50.3607566,15.4880427 L42.8318271,15.4880427 L42.8318271,21.6063657 Z M40.7661238,23.4722236 L52.4264599,23.4722236 L52.4264599,13.6225691 L40.7661238,13.6225691 L40.7661238,23.4722236 Z" id="Fill-133" fill="#242424"></path>
                            <polygon id="Fill-134" fill="#242424" points="48.6568971 22.0446405 46.6200433 15.0500753 44.5361608 15.0500753 46.5730146 22.0446405"></polygon>
                            <polygon id="Fill-135" fill="#242424" points="37.312878 23.4722236 39.3544742 23.4722236 39.3544742 3.09536413 37.312878 3.09536413"></polygon>
                            <polygon id="Fill-136" fill="#242424" points="33.7173607 22.9795295 35.7589569 22.9795295 35.7589569 3.99312811 33.7173607 3.99312811"></polygon>
                            <polygon id="Fill-137" fill="#242424" points="40.5007084 7.64233113 41.9578058 3.09509511 44.0721186 3.09509511 43.2429918 5.65426048 52.4740418 5.65426048 52.4740418 7.64233113"></polygon>
                            <path d="M25.1528132,22.8699224 L21.0787103,18.9176087 L21.0787103,8.22630047 L25.1528132,8.22630047 L25.1528132,22.8699224 Z M8.48214859,24.3802873 L8.48214859,20.4295109 L19.5208372,20.4295109 L23.5929641,24.3802873 L8.48214859,24.3802873 Z M2.20402286,3.64793478 L6.27812573,7.60063276 L6.27812573,18.2915567 L2.20402286,18.2915567 L2.20402286,3.64793478 Z M8.48214859,18.2915567 L18.8746875,18.2915567 L18.8746875,8.22630047 L8.48214859,8.22630047 L8.48214859,18.2915567 Z M18.8746875,2.13795419 L18.8746875,6.08873059 L7.836394,6.08873059 L3.76387193,2.13795419 L18.8746875,2.13795419 Z M21.0787103,6.08834627 L21.0787103,0 L0,0 L0,20.4295109 L6.27812573,20.4295109 L6.27812573,26.5178571 L27.356836,26.5178571 L27.356836,6.08834627 L21.0787103,6.08834627 Z" id="Fill-138" fill="#242424"></path>
                        </g>
                        <path d="M8.292,52.474 C8.916,52.474 9.24,52.126 9.24,51.43 L9.24,48.874 C10.08,48.094 10.788,47.146 11.364,46.042 L10.62,45.574 C10.32,46.318 9.864,47.05 9.24,47.746 L9.24,42.454 L5.724,42.454 C5.868,42.142 5.988,41.806 6.084,41.446 L5.184,41.326 C5.1,41.71 4.98,42.094 4.824,42.454 L2.412,42.454 L2.412,48.118 L0.972,48.118 L0.972,48.91 L7.992,48.91 L7.824,49.042 C6.432,50.086 4.176,50.89 1.044,51.442 L1.428,52.222 C3.9,51.79 5.964,51.094 7.608,50.122 C7.872,49.954 8.124,49.774 8.388,49.582 L8.388,51.238 C8.388,51.526 8.256,51.682 8.016,51.682 L6.78,51.646 L7.008,52.474 L8.292,52.474 Z M8.388,44.35 L3.276,44.35 L3.276,43.222 L8.388,43.222 L8.388,44.35 Z M8.388,46.162 L3.276,46.162 L3.276,45.082 L8.388,45.082 L8.388,46.162 Z M8.388,48.118 L3.276,48.118 L3.276,46.906 L8.388,46.906 L8.388,48.118 Z M20.72,45.994 C21.272,45.346 21.752,44.614 22.184,43.774 L27.116,43.774 L27.116,42.91 L22.592,42.91 C22.772,42.49 22.94,42.046 23.108,41.578 L22.244,41.374 C21.692,42.982 20.984,44.29 20.12,45.286 L20.72,45.994 Z M19.676,52.414 L19.676,41.47 L18.812,41.47 L18.812,52.414 L19.676,52.414 Z M17.624,50.446 L17.624,42.97 L16.784,42.97 L16.784,50.446 L17.624,50.446 Z M24.716,46.462 L25.388,45.982 C25.016,45.478 24.488,44.878 23.816,44.182 L23.132,44.602 C23.804,45.274 24.332,45.898 24.716,46.462 Z M21.752,52.366 L21.752,51.742 L25.952,51.742 L25.952,52.366 L26.78,52.366 L26.78,46.834 L20.924,46.834 L20.924,52.366 L21.752,52.366 Z M23.48,50.926 L21.752,50.926 L21.752,47.638 L23.48,47.638 L23.48,50.926 Z M25.952,50.926 L24.284,50.926 L24.284,47.638 L25.952,47.638 L25.952,50.926 Z M42.988,49.618 L42.988,48.814 L40.732,48.814 L40.732,43.318 L42.76,43.318 L42.76,42.502 L40.732,42.502 L40.732,41.398 L39.856,41.398 L39.856,42.502 L35.344,42.502 L35.344,41.398 L34.468,41.398 L34.468,42.502 L32.44,42.502 L32.44,43.318 L34.468,43.318 L34.468,48.814 L32.224,48.814 L32.224,49.618 L42.988,49.618 Z M39.856,44.626 L35.344,44.626 L35.344,43.318 L39.856,43.318 L39.856,44.626 Z M39.856,46.702 L35.344,46.702 L35.344,45.37 L39.856,45.37 L39.856,46.702 Z M39.856,48.814 L35.344,48.814 L35.344,47.446 L39.856,47.446 L39.856,48.814 Z M32.944,52.414 C34.384,51.85 35.596,51.202 36.58,50.458 L35.968,49.906 C35.008,50.59 33.82,51.19 32.404,51.718 L32.944,52.414 Z M42.328,52.414 L42.808,51.682 C41.704,50.998 40.48,50.422 39.136,49.942 L38.704,50.59 C39.94,51.034 41.152,51.646 42.328,52.414 Z M58.728,45.082 L58.728,44.35 L56.676,44.35 C56.868,43.942 57.012,43.51 57.12,43.078 L58.38,43.078 L58.38,42.358 L55.5,42.358 C55.404,41.974 55.308,41.638 55.188,41.326 L54.276,41.482 C54.396,41.746 54.504,42.034 54.624,42.358 L51.888,42.358 L51.888,43.078 L52.98,43.078 C53.148,43.462 53.292,43.894 53.412,44.35 L51.528,44.35 L51.528,45.082 L58.728,45.082 Z M48.144,50.914 C49.344,50.566 50.46,50.134 51.504,49.606 L51.504,48.73 C51.024,48.958 50.544,49.162 50.052,49.354 L50.052,45.214 L51.12,45.214 L51.12,44.374 L50.052,44.374 L50.052,41.518 L49.176,41.518 L49.176,44.374 L47.928,44.374 L47.928,45.214 L49.176,45.214 L49.176,49.654 C48.756,49.774 48.336,49.882 47.916,49.978 L48.144,50.914 Z M55.836,44.35 L54.228,44.35 C54.108,43.894 53.976,43.474 53.844,43.078 L56.316,43.078 C56.22,43.51 56.052,43.93 55.836,44.35 Z M50.976,52.462 C52.128,52.198 52.968,51.826 53.472,51.358 C53.928,50.914 54.228,50.326 54.372,49.606 L55.536,49.606 L55.536,51.31 C55.536,51.958 55.848,52.282 56.484,52.282 L57.852,52.282 C58.188,52.282 58.44,52.198 58.608,52.03 C58.776,51.838 58.896,51.31 58.968,50.446 L58.2,50.206 C58.164,50.854 58.104,51.238 58.032,51.37 C57.96,51.466 57.852,51.526 57.708,51.526 L56.724,51.526 C56.496,51.526 56.388,51.394 56.388,51.142 L56.388,49.606 L57.9,49.606 L57.9,45.826 L52.272,45.826 L52.272,49.606 L53.568,49.606 C53.436,50.122 53.184,50.542 52.824,50.854 C52.38,51.214 51.66,51.49 50.652,51.694 L50.976,52.462 Z M57.096,47.398 L53.064,47.398 L53.064,46.522 L57.096,46.522 L57.096,47.398 Z M57.096,48.898 L53.064,48.898 L53.064,48.01 L57.096,48.01 L57.096,48.898 Z M66.2,47.794 C66.44,47.794 66.644,47.71 66.812,47.542 C66.98,47.374 67.076,47.17 67.076,46.93 C67.076,46.69 66.98,46.474 66.812,46.306 C66.644,46.138 66.44,46.054 66.2,46.054 C65.96,46.054 65.756,46.138 65.588,46.306 C65.408,46.474 65.324,46.69 65.324,46.93 C65.324,47.17 65.408,47.374 65.588,47.542 C65.756,47.71 65.96,47.794 66.2,47.794 Z M80.344,48.874 C80.776,48.61 81.196,48.274 81.592,47.854 C81.64,47.926 81.712,48.01 81.784,48.094 C82.228,48.574 82.684,48.826 83.164,48.826 C83.668,48.826 84.1,48.19 84.46,46.93 L83.764,46.522 C83.524,47.518 83.296,48.022 83.08,48.022 C82.816,48.022 82.528,47.806 82.216,47.386 L82.108,47.218 C82.66,46.45 83.116,45.49 83.488,44.314 L82.816,43.966 C82.528,44.902 82.156,45.706 81.724,46.402 C81.604,46.102 81.508,45.766 81.424,45.394 C81.28,44.854 81.184,44.158 81.136,43.318 L83.968,43.318 L83.968,42.526 L83.164,42.526 C83.044,42.13 82.912,41.77 82.78,41.458 L82.012,41.59 C82.156,41.878 82.288,42.19 82.408,42.526 L81.1,42.526 C81.076,42.166 81.076,41.794 81.076,41.398 L80.248,41.398 C80.248,41.782 80.248,42.166 80.272,42.526 L74.572,42.526 L74.572,44.89 C74.536,46.282 74.2,47.362 73.552,48.142 L74.2,48.73 C74.968,47.758 75.376,46.474 75.412,44.89 L75.412,43.318 L80.308,43.318 C80.368,44.314 80.488,45.142 80.68,45.814 C80.824,46.306 80.992,46.75 81.184,47.134 C80.8,47.566 80.368,47.926 79.9,48.202 L80.344,48.874 Z M79.912,44.986 L79.912,44.278 L75.964,44.278 L75.964,44.986 L79.912,44.986 Z M79.636,48.202 L79.636,45.754 L76.288,45.754 L76.288,48.202 L79.636,48.202 Z M78.832,47.53 L77.104,47.53 L77.104,46.426 L78.832,46.426 L78.832,47.53 Z M79.648,50.674 L80.296,50.218 C79.996,49.762 79.564,49.222 79,48.622 L78.352,49.018 C78.904,49.618 79.336,50.17 79.648,50.674 Z M80.572,52.258 C81.016,52.258 81.34,52.174 81.556,52.006 C81.796,51.79 81.952,51.226 82.024,50.29 L81.208,50.014 C81.16,50.71 81.064,51.118 80.944,51.262 C80.836,51.382 80.656,51.442 80.416,51.442 L77.86,51.442 C77.56,51.442 77.416,51.274 77.416,50.938 L77.416,48.826 L76.54,48.826 L76.54,51.118 C76.54,51.874 76.888,52.258 77.596,52.258 L80.572,52.258 Z M74.344,52.054 C74.944,51.226 75.4,50.254 75.736,49.126 L74.944,48.958 C74.656,49.918 74.212,50.794 73.612,51.586 L74.344,52.054 Z M83.788,51.79 L84.472,51.298 C84.1,50.698 83.56,50.002 82.84,49.21 L82.144,49.642 C82.84,50.422 83.38,51.142 83.788,51.79 Z M90.228,42.826 C94.08,42.826 97.176,42.634 99.504,42.274 L99.084,41.542 C96.672,41.878 93.636,42.046 89.976,42.046 L90.228,42.826 Z M90.624,47.878 L90.624,45.958 L98.976,45.958 L98.976,47.878 L99.816,47.878 L99.816,45.142 L97.536,45.142 C97.932,44.626 98.316,43.99 98.7,43.222 L97.836,42.898 C97.5,43.69 97.092,44.446 96.612,45.142 L89.784,45.142 L89.784,47.878 L90.624,47.878 Z M94.692,45.022 L95.46,44.626 C95.1,44.026 94.716,43.486 94.332,42.994 L93.552,43.366 C93.96,43.846 94.332,44.398 94.692,45.022 Z M91.908,45.118 L92.652,44.746 C92.292,44.158 91.896,43.618 91.476,43.126 L90.72,43.51 C91.14,43.978 91.536,44.518 91.908,45.118 Z M89.952,52.486 C91.932,52.078 93.588,51.538 94.932,50.866 C96.18,51.514 97.752,52.054 99.648,52.474 L100.152,51.706 C98.436,51.358 96.984,50.914 95.796,50.374 C96.924,49.678 97.752,48.838 98.28,47.878 L98.28,47.134 L91.248,47.134 L91.248,47.926 L91.728,47.926 C92.196,48.85 92.976,49.666 94.068,50.362 C92.832,50.902 91.308,51.334 89.496,51.67 L89.952,52.486 Z M94.92,49.942 C93.876,49.366 93.108,48.694 92.616,47.926 L97.32,47.926 C96.768,48.694 95.976,49.366 94.92,49.942 Z M105.668,52.486 C106.724,50.83 107.252,48.838 107.264,46.534 L107.264,45.478 L115.208,45.478 L115.208,42.37 L111.332,42.37 C111.212,41.974 111.08,41.614 110.96,41.302 L110.024,41.446 C110.168,41.734 110.288,42.034 110.408,42.37 L106.4,42.37 L106.4,46.534 C106.388,48.73 105.932,50.518 105.032,51.91 L105.668,52.486 Z M114.356,44.686 L107.264,44.686 L107.264,43.186 L114.356,43.186 L114.356,44.686 Z M107.588,52.462 C108.86,51.79 109.736,50.842 110.216,49.618 L114.092,49.618 C114.044,50.482 113.996,51.01 113.96,51.178 C113.912,51.334 113.792,51.454 113.612,51.526 C113.42,51.586 113,51.622 112.352,51.622 C112.136,51.622 111.908,51.61 111.668,51.598 L111.896,52.378 L112.136,52.378 C113.144,52.378 113.804,52.33 114.116,52.234 C114.428,52.138 114.632,51.958 114.728,51.682 C114.836,51.394 114.92,50.446 114.968,48.838 L110.456,48.838 C110.54,48.49 110.588,48.106 110.612,47.698 L115.916,47.698 L115.916,46.882 L112.148,46.882 C112.028,46.498 111.908,46.138 111.788,45.814 L110.876,45.958 C111.008,46.234 111.128,46.546 111.248,46.882 L107.84,46.882 L107.84,47.698 L109.724,47.698 C109.616,49.57 108.752,50.902 107.12,51.706 L107.588,52.462 Z M123.352,44.11 L123.94,43.522 C123.352,42.922 122.632,42.31 121.78,41.686 L121.192,42.25 C122.104,42.91 122.824,43.534 123.352,44.11 Z M123.952,52.438 C124.816,50.878 125.272,48.79 125.32,46.198 L125.32,42.706 L128.212,42.706 C128.128,43.09 128.02,43.462 127.876,43.834 L126.172,43.834 L126.172,48.046 L128.224,48.046 L128.224,51.238 C128.224,51.538 128.08,51.694 127.816,51.694 C127.528,51.694 127.228,51.67 126.916,51.634 L127.096,52.414 L128.104,52.414 C128.728,52.414 129.052,52.09 129.052,51.442 L129.052,48.046 L131.044,48.046 L131.044,43.834 L128.704,43.834 C128.836,43.474 128.944,43.102 129.028,42.706 L131.68,42.706 L131.68,41.926 L124.48,41.926 L124.48,46.198 C124.444,48.622 124.048,50.506 123.304,51.862 L123.952,52.438 Z M130.276,45.622 L126.94,45.622 L126.94,44.518 L130.276,44.518 L130.276,45.622 Z M122.98,46.99 L123.568,46.402 C123.028,45.814 122.356,45.226 121.564,44.626 L120.976,45.19 C121.84,45.826 122.5,46.426 122.98,46.99 Z M130.276,47.35 L126.94,47.35 L126.94,46.27 L130.276,46.27 L130.276,47.35 Z M121.912,52.414 C122.572,51.082 123.172,49.666 123.7,48.154 L122.956,47.866 C122.44,49.294 121.828,50.686 121.108,52.054 L121.912,52.414 Z M131.104,51.814 L131.836,51.49 C131.476,50.554 131.044,49.666 130.552,48.838 L129.832,49.09 C130.288,49.882 130.72,50.782 131.104,51.814 Z M125.944,51.826 C126.496,51.046 126.928,50.122 127.24,49.066 L126.472,48.898 C126.22,49.81 125.812,50.638 125.248,51.394 L125.944,51.826 Z M138.144,44.926 L138.144,43.426 L146.232,43.426 L146.232,44.926 L147.072,44.926 L147.072,42.622 L142.728,42.622 C142.572,42.154 142.416,41.734 142.26,41.374 L141.372,41.518 C141.552,41.854 141.72,42.214 141.864,42.622 L137.304,42.622 L137.304,44.926 L138.144,44.926 Z M141.84,46.078 L142.284,45.394 C141.54,44.854 140.712,44.398 139.812,44.026 L139.368,44.674 C140.208,45.01 141.036,45.478 141.84,46.078 Z M146.964,52.522 L147.432,51.778 C146.016,50.866 144.444,50.086 142.74,49.414 C142.848,49.246 142.956,49.066 143.064,48.874 L147.276,48.874 L147.276,48.058 L143.424,48.058 C143.688,47.314 143.832,46.462 143.868,45.514 L143.868,44.098 L143.028,44.098 L143.028,45.514 C142.992,46.462 142.824,47.314 142.512,48.058 L137.136,48.058 L137.136,48.874 L142.092,48.874 C141.972,49.066 141.852,49.246 141.708,49.414 C140.82,50.374 139.26,51.154 137.028,51.73 L137.508,52.462 C139.704,51.886 141.288,51.082 142.26,50.05 C143.868,50.674 145.428,51.49 146.964,52.522 Z M140.688,47.746 L141.132,47.062 C140.412,46.558 139.608,46.114 138.732,45.742 L138.3,46.39 C139.116,46.714 139.92,47.17 140.688,47.746 Z M163.28,46.63 L163.28,45.91 L158.54,45.91 C158.444,45.67 158.348,45.43 158.24,45.214 L161.96,45.214 L161.96,41.794 L154.052,41.794 L154.052,45.214 L157.256,45.214 C157.388,45.43 157.52,45.658 157.64,45.91 L152.72,45.91 L152.72,46.63 L163.28,46.63 Z M161.12,43.174 L154.892,43.174 L154.892,42.478 L161.12,42.478 L161.12,43.174 Z M161.12,44.53 L154.892,44.53 L154.892,43.81 L161.12,43.81 L161.12,44.53 Z M157.64,52.402 C158.252,52.402 158.564,52.066 158.564,51.406 L158.564,49.702 L161.84,49.702 L161.84,47.278 L154.256,47.278 L154.256,49.702 L157.712,49.702 L157.712,51.202 C157.712,51.502 157.592,51.658 157.352,51.658 C156.932,51.658 156.488,51.634 156.032,51.598 L156.212,52.402 L157.64,52.402 Z M161,49.018 L155.096,49.018 L155.096,47.962 L161,47.962 L161,49.018 Z M153.044,52.306 C154.292,51.874 155.312,51.31 156.104,50.626 L155.564,50.074 C154.868,50.674 153.872,51.178 152.564,51.598 L153.044,52.306 Z M163.136,52.306 L163.436,51.514 C162.368,50.914 161.252,50.446 160.1,50.134 L159.74,50.818 C160.916,51.178 162.044,51.67 163.136,52.306 Z" id="身临其境·感受房源实景" fill="#464646" fill-rule="nonzero"></path>
                        <g id="编组-17" stroke-width="1" fill="none" fill-rule="evenodd" transform="translate(88.655602, 4.230769)">
                            <g id="编组-15" transform="translate(34.538586, 0.000000)">
                                <g id="编组-10">
                                    <path d="M37.6896296,1.59348253 L31.8882086,1.59348253 L30.9502481,0 L29.270742,0 L30.2083524,1.59348253 L22.2698238,1.59348253 L22.2698238,12.5818214 C22.2698238,15.7207963 21.9225088,16.8638022 21.4799623,18.2751324 L22.9924631,18.2751324 C23.3971971,16.8935771 23.7172031,15.6051997 23.7172031,12.5818214 L23.7172031,3.0415935 L37.6896296,3.0415935 L37.6896296,1.59348253 Z" id="Fill-146" fill="#242424"></path>
                                    <polygon id="Fill-61" fill="#242424" points="36.2406798 6.28850941 37.6880591 6.28850941 37.6880591 2.08499426 36.2406798 2.08499426"></polygon>
                                    <g id="编组-19" transform="translate(0.000000, 1.136392)">
                                        <polygon id="Fill-60" fill="#242424" points="23.230542 5.21581983 37.6896296 5.21581983 37.6896296 3.76770887 23.230542 3.76770887"></polygon>
                                        <g id="编组-20">
                                            <polygon id="Fill-60" fill="#242424" points="0 6.96728448 15.4051008 6.96728448 15.4051008 5.51917351 0 5.51917351"></polygon>
                                            <polygon id="Fill-60" fill="#242424" points="0.666498762 4.34310155 14.6711359 4.34310155 14.6711359 2.89499058 0.666498762 2.89499058"></polygon>
                                            <path d="M7.27694692,1.50746825 C7.15364897,2.27215842 6.2366855,7.00196672 0.000811177761,10.3222361 L0.00157675386,8.64446048 C3.46156144,6.483641 5.39017223,3.3116966 5.78260013,1.58578365 L5.78260013,1.58578365 Z" id="形状结合" fill="#242424"></path>
                                            <path d="M3.12565605,15.6906293 L12.1244106,15.6906293 C12.51101,15.6906293 12.8244106,15.3772286 12.8244106,14.9906293 C12.8244106,14.989796 12.8244092,14.9889628 12.8244062,14.9881295 L12.8041574,9.3179621 L12.8041574,9.3179621 L3.12565605,9.3179621 L3.12565605,15.6906293 Z M1.6782768,17.1387402 L1.6782768,7.86985114 L14.2487357,7.86985114 L14.2694553,15.3839147 C14.2721204,16.3504094 13.4907821,17.1360685 12.5242875,17.1387336 C12.522679,17.138738 12.5210705,17.1387402 12.519462,17.1387402 L1.6782768,17.1387402 L1.6782768,17.1387402 Z" id="Fill-69" fill="#242424"></path>
                                            <polygon id="Fill-71" fill="#242424" points="3.08907284 12.1320403 12.8923188 12.1320403 12.8923188 10.6839294 3.08907284 10.6839294"></polygon>
                                            <polygon id="Fill-71" fill="#242424" points="3.08907284 14.5840908 12.8923188 14.5840908 12.8923188 13.1359799 3.08907284 13.1359799"></polygon>
                                            <polygon id="Fill-60" fill="#242424" points="0.700231857 1.71289055 8.38498144 1.71289055 8.68963056 1.53766548 11.5538256 0.264779581 0.700231857 0.264779581"></polygon>
                                            <path d="M14.2222665,0 L14.0928297,0.0413802645 C12.1289506,0.669221938 10.0796141,0.988835064 8.01781729,0.988835064 L6.65220264,0.988835064 L6.65220264,0.988835064" id="路径" stroke="#242424" stroke-width="1.4455"></path>
                                        </g>
                                    </g>
                                    <polygon id="矩形" fill="#242424" transform="translate(29.860021, 7.708560) scale(-1, 1) translate(-29.860021, -7.708560) " points="29.4114205 7.01009015 31.0288838 7.01009015 30.3086206 8.40703028 28.6911573 8.40703028"></polygon>
                                    <polygon id="Fill-60" fill="#242424" points="24.7353402 9.85514125 37.6896296 9.85514125 37.6896296 8.40703028 24.7353402 8.40703028"></polygon>
                                    <path d="M29.0613818,9.45790907 C29.0624955,10.0394429 28.9655841,13.9561612 26.3725817,18.3323489 L25.3474577,17.1809768 C27.4845407,13.3391811 27.6072832,9.97376384 27.6136661,9.5063611 L27.6139934,9.46071141 Z" id="形状结合" fill="#242424"></path>
                                </g>
                                <path d="M28.5187768,12.107892 L36.9643695,12.107892 L36.9643695,16.2553269 C36.9643695,17.0285255 36.3375681,17.6553269 35.5643695,17.6553269 L34.4949846,17.6553269 L34.4949846,17.6553269" id="路径-41" stroke="#242424" stroke-width="1.47"></path>
                            </g>
                            <g id="编组-6" transform="translate(0.000000, 0.700586)" fill="#242424">
                                <path d="M17.5640557,7.86442654 L24.6843633,7.86442654 C26.4524488,7.86442654 27.8910751,6.4250729 27.8910751,4.65609361 C27.8910751,2.88746461 26.4524488,1.44811097 24.6843633,1.44811097 L17.5640557,1.44811097 L17.5640557,7.86442654 Z M17.5640557,17.0487568 L16.1166765,17.0487568 L16.1166765,0 L24.6843633,0 C27.2507131,0 29.3384544,2.08879673 29.3384544,4.65609361 C29.3384544,7.22374077 27.2507131,9.31253751 24.6843633,9.31253751 L17.5640557,9.31253751 L17.5640557,17.0487568 Z" id="Fill-73"></path>
                                <polygon id="Fill-74" points="29.2715472 17.0488619 24.0107053 7.86453163 17.136179 7.86453163 17.136179 9.31264259 23.0772962 9.31264259 27.5083634 17.0488619"></polygon>
                                <polygon id="Fill-75" points="5.40964121 17.0488619 7.03592969 17.0488619 1.62628849 0.000105087878 0 0.000105087878"></polygon>
                                <polygon id="Fill-76" points="7.8121017 17.0488619 6.18581321 17.0488619 11.5958045 0.000105087878 13.2217429 0.000105087878"></polygon>
                            </g>
                        </g>
                        <ellipse id="椭圆形" fill="#242424" fill-rule="evenodd" cx="82.8385504" cy="13.5228322" rx="1.4701536" ry="1.47321429"></ellipse>
                    </g>
                </g>
            </g>
        </g>
    </g>
</svg>