{"asset":{"generator":"Unity 2020.3.20f1","extras":{"exporterVersion":"2.2.1"},"version":"2.0"},"accessors":[{"bufferView":2,"byteOffset":0,"componentType":5126,"count":48,"max":[192.4985,70.55695,139.2639],"min":[-118.1927,-74.00002,-78.81834],"type":"VEC3"},{"bufferView":2,"byteOffset":576,"componentType":5126,"count":48,"max":[0.990869,1,0.9908686],"min":[-0.9908687,-1,-0.9908687],"type":"VEC3"},{"bufferView":1,"byteOffset":0,"componentType":5126,"count":48,"max":[1,0.8320313],"min":[0,0],"type":"VEC2"},{"bufferView":0,"byteOffset":0,"componentType":5123,"count":72,"max":[47],"min":[0],"type":"SCALAR"},{"bufferView":2,"byteOffset":1152,"componentType":5126,"count":40,"max":[53.69599,72.14023,35.6746],"min":[-54.38981,-74.00002,-103.6862],"type":"VEC3"},{"bufferView":2,"byteOffset":1632,"componentType":5126,"count":40,"max":[0.9633287,1,0.9633288],"min":[-0.9633138,-1,-0.9633286],"type":"VEC3"},{"bufferView":1,"byteOffset":384,"componentType":5126,"count":40,"max":[0.9101563,0.8671875],"min":[0,0],"type":"VEC2"},{"bufferView":0,"byteOffset":144,"componentType":5123,"count":60,"max":[39],"min":[0],"type":"SCALAR"},{"bufferView":2,"byteOffset":2112,"componentType":5126,"count":44,"max":[81.87946,71.03675,137.4508],"min":[-91.77407,-74.00002,-67.86179],"type":"VEC3"},{"bufferView":2,"byteOffset":2640,"componentType":5126,"count":44,"max":[0.9283903,1,0.9283904],"min":[-0.9283902,-1,-0.9283901],"type":"VEC3"},{"bufferView":1,"byteOffset":704,"componentType":5126,"count":44,"max":[0.9882813,0.7539063],"min":[0,0],"type":"VEC2"},{"bufferView":0,"byteOffset":264,"componentType":5123,"count":66,"max":[43],"min":[0],"type":"SCALAR"},{"bufferView":2,"byteOffset":3168,"componentType":5126,"count":44,"max":[131.3299,71.20065,68.72314],"min":[-58.8442,-73.99999,-58.79263],"type":"VEC3"},{"bufferView":2,"byteOffset":3696,"componentType":5126,"count":44,"max":[0.9734194,1,0.9734194],"min":[-0.9734256,-1,-0.9734397],"type":"VEC3"},{"bufferView":1,"byteOffset":1056,"componentType":5126,"count":44,"max":[0.9414063,0.75],"min":[0,0],"type":"VEC2"},{"bufferView":0,"byteOffset":396,"componentType":5123,"count":66,"max":[43],"min":[0],"type":"SCALAR"},{"bufferView":2,"byteOffset":4224,"componentType":5126,"count":56,"max":[192.9773,68.52753,218.1057],"min":[-167.29,-74.00002,-137.4719],"type":"VEC3"},{"bufferView":2,"byteOffset":4896,"componentType":5126,"count":56,"max":[0.9132807,1,0.9132807],"min":[-0.9132802,-1,-0.9132807],"type":"VEC3"},{"bufferView":1,"byteOffset":1408,"componentType":5126,"count":56,"max":[0.9960938,0.5742188],"min":[0,0],"type":"VEC2"},{"bufferView":0,"byteOffset":528,"componentType":5123,"count":84,"max":[55],"min":[0],"type":"SCALAR"},{"bufferView":2,"byteOffset":5568,"componentType":5126,"count":40,"max":[36.92938,68.25504,44.33101],"min":[-137.6597,-74.00002,-118.3392],"type":"VEC3"},{"bufferView":2,"byteOffset":6048,"componentType":5126,"count":40,"max":[0.999997,1,0.999997],"min":[-0.999997,-1,-0.999997],"type":"VEC3"},{"bufferView":1,"byteOffset":1856,"componentType":5126,"count":40,"max":[0.9960938,0.9804688],"min":[0,0],"type":"VEC2"},{"bufferView":0,"byteOffset":696,"componentType":5123,"count":60,"max":[39],"min":[0],"type":"SCALAR"},{"bufferView":2,"byteOffset":6528,"componentType":5126,"count":36,"max":[52.78127,68.87214,140.8946],"min":[-121.8713,-74.00002,-28.23581],"type":"VEC3"},{"bufferView":2,"byteOffset":6960,"componentType":5126,"count":36,"max":[0.9999962,1,0.9999962],"min":[-0.9999962,-1,-0.9999962],"type":"VEC3"},{"bufferView":1,"byteOffset":2176,"componentType":5126,"count":36,"max":[1,0.9921875],"min":[0,0],"type":"VEC2"},{"bufferView":0,"byteOffset":816,"componentType":5123,"count":54,"max":[35],"min":[0],"type":"SCALAR"},{"bufferView":2,"byteOffset":7392,"componentType":5126,"count":32,"max":[72.97983,71.38445,56.13858],"min":[-112.6681,-74.00002,-32.44876],"type":"VEC3"},{"bufferView":2,"byteOffset":7776,"componentType":5126,"count":32,"max":[0.9975684,1,0.9975689],"min":[-0.9975636,-1,-0.9975684],"type":"VEC3"},{"bufferView":1,"byteOffset":2464,"componentType":5126,"count":32,"max":[0.9296875,0.8515625],"min":[0,0],"type":"VEC2"},{"bufferView":0,"byteOffset":924,"componentType":5123,"count":48,"max":[31],"min":[0],"type":"SCALAR"},{"bufferView":2,"byteOffset":8160,"componentType":5126,"count":32,"max":[159.8482,66.52637,155.303],"min":[-54.63586,-74.00002,-48.3664],"type":"VEC3"},{"bufferView":2,"byteOffset":8544,"componentType":5126,"count":32,"max":[0.4068502,1,0.9134949],"min":[-0.9134951,-1,-0.9134957],"type":"VEC3"},{"bufferView":1,"byteOffset":2720,"componentType":5126,"count":32,"max":[0.9453125,0.9570313],"min":[0,0],"type":"VEC2"},{"bufferView":0,"byteOffset":1020,"componentType":5123,"count":48,"max":[31],"min":[0],"type":"SCALAR"}],"buffers":[{"byteLength":13020,"uri":"https://wos.anjukestatic.com/jnhGfEdCbjn/ajkpanomateriel/1062418f8e0544a6b0495ed0a9d5d9b0.bin"}],"bufferViews":[{"buffer":0,"byteLength":1116,"target":34963,"byteOffset":11904},{"buffer":0,"byteLength":2976,"target":34962,"byteStride":8,"byteOffset":0},{"buffer":0,"byteLength":8928,"target":34962,"byteStride":12,"byteOffset":2976}],"extensionsUsed":["KHR_materials_unlit"],"images":[{"uri":"https://wos.anjukestatic.com/jnhGfEdCbjn/ajkpanomateriel/f584ad03597b4091ad4eb2e93b48235b.png"},{"uri":"https://wos.anjukestatic.com/jnhGfEdCbjn/ajkpanomateriel/6cabd58b17a34be8a71cd19b32f272cb.png"},{"uri":"https://wos.anjukestatic.com/jnhGfEdCbjn/ajkpanomateriel/b3919e033f854d87974d9eef27ebfc27.png"},{"uri":"https://wos.anjukestatic.com/jnhGfEdCbjn/ajkpanomateriel/0acb97a8d94a42b89b75a86d598bf604.png"},{"uri":"https://wos.anjukestatic.com/jnhGfEdCbjn/ajkpanomateriel/7c81bcb35f34450b8b018992e83408f7.png"},{"uri":"https://wos.anjukestatic.com/jnhGfEdCbjn/ajkpanomateriel/0096ed97c1524b2a813b86027677aa47.png"},{"uri":"https://wos.anjukestatic.com/jnhGfEdCbjn/ajkpanomateriel/07155192c418466cb5d523f6fb457c59.png"},{"uri":"https://wos.anjukestatic.com/jnhGfEdCbjn/ajkpanomateriel/0f09d8eec2684d3ebeab84c96f839cb4.png"},{"uri":"https://wos.anjukestatic.com/jnhGfEdCbjn/ajkpanomateriel/34a426934afd469e99693b2f8c71e424.png"}],"materials":[{"extensions":{"KHR_materials_unlit":{}},"pbrMetallicRoughness":{"baseColorTexture":{"index":0,"texCoord":0}},"alphaMode":"MASK","alphaCutoff":0.5,"name":"Standard (Instance)"},{"extensions":{"KHR_materials_unlit":{}},"pbrMetallicRoughness":{"baseColorTexture":{"index":1,"texCoord":0}},"alphaMode":"MASK","alphaCutoff":0.5,"name":"Standard (Instance)"},{"extensions":{"KHR_materials_unlit":{}},"pbrMetallicRoughness":{"baseColorTexture":{"index":2,"texCoord":0}},"alphaMode":"MASK","alphaCutoff":0.5,"name":"Standard (Instance)"},{"extensions":{"KHR_materials_unlit":{}},"pbrMetallicRoughness":{"baseColorTexture":{"index":3,"texCoord":0}},"alphaMode":"MASK","alphaCutoff":0.5,"name":"Standard (Instance)"},{"extensions":{"KHR_materials_unlit":{}},"pbrMetallicRoughness":{"baseColorTexture":{"index":4,"texCoord":0}},"alphaMode":"MASK","alphaCutoff":0.5,"name":"Standard (Instance)"},{"extensions":{"KHR_materials_unlit":{}},"pbrMetallicRoughness":{"baseColorTexture":{"index":5,"texCoord":0}},"alphaMode":"MASK","alphaCutoff":0.5,"name":"Standard (Instance)"},{"extensions":{"KHR_materials_unlit":{}},"pbrMetallicRoughness":{"baseColorTexture":{"index":6,"texCoord":0}},"alphaMode":"MASK","alphaCutoff":0.5,"name":"Standard (Instance)"},{"extensions":{"KHR_materials_unlit":{}},"pbrMetallicRoughness":{"baseColorTexture":{"index":7,"texCoord":0}},"alphaMode":"MASK","alphaCutoff":0.5,"name":"Standard (Instance)"},{"extensions":{"KHR_materials_unlit":{}},"pbrMetallicRoughness":{"baseColorTexture":{"index":8,"texCoord":0}},"alphaMode":"MASK","alphaCutoff":0.5,"name":"Standard (Instance)"}],"meshes":[{"name":"D8TIcWJj","extras":{"floorId":"2QE58PG0","roomId":"D8TIcWJj"},"primitives":[{"attributes":{"POSITION":0,"NORMAL":1,"TEXCOORD_0":2},"indices":3,"material":0,"mode":4}]},{"name":"u5fSKuBK","extras":{"floorId":"2QE58PG0","roomId":"u5fSKuBK"},"primitives":[{"attributes":{"POSITION":4,"NORMAL":5,"TEXCOORD_0":6},"indices":7,"material":1,"mode":4}]},{"name":"HipSW9Ev","extras":{"floorId":"2QE58PG0","roomId":"HipSW9Ev"},"primitives":[{"attributes":{"POSITION":8,"NORMAL":9,"TEXCOORD_0":10},"indices":11,"material":2,"mode":4}]},{"name":"Lhx9v4kO","extras":{"floorId":"2QE58PG0","roomId":"Lhx9v4kO"},"primitives":[{"attributes":{"POSITION":12,"NORMAL":13,"TEXCOORD_0":14},"indices":15,"material":3,"mode":4}]},{"name":"V4IO04f4","extras":{"floorId":"2QE58PG0","roomId":"V4IO04f4"},"primitives":[{"attributes":{"POSITION":16,"NORMAL":17,"TEXCOORD_0":18},"indices":19,"material":4,"mode":4}]},{"name":"T2ZlcQLC","extras":{"floorId":"2QE58PG0","roomId":"T2ZlcQLC"},"primitives":[{"attributes":{"POSITION":20,"NORMAL":21,"TEXCOORD_0":22},"indices":23,"material":5,"mode":4}]},{"name":"7P4uqSsm","extras":{"floorId":"2QE58PG0","roomId":"7P4uqSsm"},"primitives":[{"attributes":{"POSITION":24,"NORMAL":25,"TEXCOORD_0":26},"indices":27,"material":6,"mode":4}]},{"name":"coXb868w","extras":{"floorId":"2QE58PG0","roomId":"coXb868w"},"primitives":[{"attributes":{"POSITION":28,"NORMAL":29,"TEXCOORD_0":30},"indices":31,"material":7,"mode":4}]},{"name":"2NIq9DUF","extras":{"floorId":"2QE58PG0","roomId":"2NIq9DUF"},"primitives":[{"attributes":{"POSITION":32,"NORMAL":33,"TEXCOORD_0":34},"indices":35,"material":8,"mode":4}]}],"nodes":[{"name":"RootHouseModel","children":[1]},{"name":"2QE58PG0","children":[2,3,4,5,6,7,8,9,10],"matrix":[1,0,0,0,0,1,0,0,0,0,1,0,0,0,0,1]},{"name":"D8TIcWJj","mesh":0,"translation":[211.7682,-22.5,-3.747956],"rotation":[0,-0.6577111,0,0.7532703]},{"name":"u5fSKuBK","mesh":1,"translation":[229.4296,-22.5,-135.9623],"rotation":[0,-0.1354092,0,0.9907898]},{"name":"HipSW9Ev","mesh":2,"translation":[-207.8301,-22.5,-112.7328],"rotation":[0,0.9819342,0,0.1892226]},{"name":"Lhx9v4kO","mesh":3,"translation":[-290.4967,-22.5,-106.7815],"rotation":[0,0.78391,0,0.6208744]},{"name":"V4IO04f4","mesh":4,"translation":[5.300211,-22.5,86.41988],"rotation":[0,-0.8388481,0,0.5443655]},{"name":"T2ZlcQLC","mesh":5,"translation":[81.24532,-22.5,-92.74019],"rotation":[0,-0.7062285,0,0.707984]},{"name":"7P4uqSsm","mesh":6,"translation":[9.105249,-22.5,-108.8081],"rotation":[0,-0.7061284,0,0.7080838]},{"name":"coXb868w","mesh":7,"translation":[207.4553,-22.5,209.2721],"rotation":[0,-0.03486817,0,0.9993919]},{"name":"2NIq9DUF","mesh":8,"translation":[-184.6508,-22.5,45.17481],"rotation":[0,-0.9781348,0,0.2079721]}],"samplers":[{"magFilter":9729,"minFilter":9985,"wrapS":10497,"wrapT":10497}],"scenes":[{"name":"defaultScene","nodes":[0]}],"scene":0,"textures":[{"sampler":0,"source":0},{"sampler":0,"source":1},{"sampler":0,"source":2},{"sampler":0,"source":3},{"sampler":0,"source":4},{"sampler":0,"source":5},{"sampler":0,"source":6},{"sampler":0,"source":7},{"sampler":0,"source":8}]}